<?xml version="1.0" encoding="UTF-8" standalone="no"?>
<svg
   enable-background="new 0 0 24 24"
   height="48px"
   viewBox="0 0 24 24"
   width="48px"
   fill="#000000"
   version="1.1"
   id="svg1"
   sodipodi:docname="launcher_icon.svg"
   inkscape:version="1.3.2 (091e20e, 2023-11-25, custom)"
   inkscape:export-filename="luggage_black_48dp.png"
   inkscape:export-xdpi="200"
   inkscape:export-ydpi="200"
   xmlns:inkscape="http://www.inkscape.org/namespaces/inkscape"
   xmlns:sodipodi="http://sodipodi.sourceforge.net/DTD/sodipodi-0.dtd"
   xmlns="http://www.w3.org/2000/svg"
   xmlns:svg="http://www.w3.org/2000/svg">
  <defs
     id="defs1" />
  <sodipodi:namedview
     id="namedview1"
     pagecolor="#ffffff"
     bordercolor="#000000"
     borderopacity="0.25"
     inkscape:showpageshadow="2"
     inkscape:pageopacity="0.0"
     inkscape:pagecheckerboard="0"
     inkscape:deskcolor="#d1d1d1"
     inkscape:zoom="5.4791667"
     inkscape:cx="22.174905"
     inkscape:cy="10.585551"
     inkscape:window-width="1366"
     inkscape:window-height="705"
     inkscape:window-x="-8"
     inkscape:window-y="-8"
     inkscape:window-maximized="1"
     inkscape:current-layer="svg1" />
  <rect
     style="font-variation-settings:normal;opacity:1;vector-effect:none;fill:#ffffff;fill-opacity:1;fill-rule:evenodd;stroke:none;stroke-width:7.55905;stroke-linecap:butt;stroke-linejoin:round;stroke-miterlimit:4;stroke-dasharray:none;stroke-dashoffset:0;stroke-opacity:1;-inkscape-stroke:none;paint-order:stroke fill markers;stop-color:#000000;stop-opacity:1"
     id="rect2"
     width="24"
     height="24"
     x="0"
     y="0" />
  <rect
     fill="none"
     height="24"
     width="24"
     id="rect1" />
  <g
     id="g1"
     style="fill:#ffad00;fill-opacity:1">
    <path
       d="M17,6h-2V3c0-0.55-0.45-1-1-1h-4C9.45,2,9,2.45,9,3v3H7C5.9,6,5,6.9,5,8v11c0,1.1,0.9,2,2,2c0,0.55,0.45,1,1,1 c0.55,0,1-0.45,1-1h6c0,0.55,0.45,1,1,1c0.55,0,1-0.45,1-1c1.1,0,2-0.9,2-2V8C19,6.9,18.1,6,17,6z M9.5,18H8V9h1.5V18z M12.75,18 h-1.5V9h1.5V18z M13.5,6h-3V3.5h3V6z M16,18h-1.5V9H16V18z"
       id="path1"
       style="fill:#ffad00;fill-opacity:1" />
  </g>
</svg>
